<?xml version="1.0" encoding="UTF-8" standalone="no"?>
<!DOCTYPE svg PUBLIC "-//W3C//DTD SVG 1.1//EN" "http://www.w3.org/Graphics/SVG/1.1/DTD/svg11.dtd">
<svg xmlns="http://www.w3.org/2000/svg" version="1.1" viewBox="0.00 0.00 469.00 402.00">
<g stroke-width="2.00" fill="none" stroke-linecap="butt">
<path stroke="#90b6d4" vector-effect="non-scaling-stroke" d="
  M 205.58 114.30
  L 205.43 143.73
  A 2.30 2.28 -19.0 0 1 204.54 145.54
  L 190.30 156.50
  A 1.80 1.79 -18.7 0 0 189.59 157.93
  L 189.59 200.87
  A 0.61 0.61 0.0 0 0 190.50 201.40
  L 207.69 191.48
  A 1.45 1.44 -15.2 0 0 208.41 190.23
  L 208.41 152.21
  A 0.24 0.24 0.0 0 1 208.53 152.00
  L 215.15 148.18
  A 0.18 0.18 0.0 0 1 215.42 148.34
  L 215.43 179.07
  A 0.08 0.03 -87.1 0 0 215.45 179.14
  Q 215.48 179.14 215.51 179.14
  A 0.26 0.16 -69.7 0 0 215.67 179.01
  Q 217.78 175.52 221.01 172.79
  A 3.54 3.51 -20.4 0 0 222.25 170.11
  L 222.25 119.38
  A 0.39 0.39 0.0 0 0 221.64 119.06
  L 210.51 126.73
  A 0.42 0.41 -17.8 0 1 209.86 126.40
  L 209.69 113.55"
/>
<path stroke="#8fc9e7" vector-effect="non-scaling-stroke" d="
  M 209.69 113.55
  Q 209.66 111.47 210.88 110.38
  Q 221.84 100.56 232.69 89.65
  A 0.44 0.44 0.0 0 1 233.42 89.84
  L 233.55 90.30
  A 0.32 0.24 -63.4 0 1 233.57 90.41
  L 233.56 133.15"
/>
<path stroke="#90b6d4" vector-effect="non-scaling-stroke" d="
  M 233.56 133.15
  L 233.57 161.29"
/>
<path stroke="#b6c9df" vector-effect="non-scaling-stroke" d="
  M 233.57 161.29
  L 233.69 167.68
  A 0.60 0.59 -87.2 0 0 234.21 168.26
  Q 238.31 168.74 239.75 169.21
  Q 249.58 172.45 253.28 180.69
  C 257.00 188.95 255.30 200.29 248.46 206.16
  Q 242.72 211.07 234.57 211.90
  A 0.74 0.74 0.0 0 0 233.94 212.46
  Q 233.26 215.44 233.63 218.48"
/>
<path stroke="#90b6d4" vector-effect="non-scaling-stroke" d="
  M 233.63 218.48
  Q 233.57 219.29 233.68 219.58"
/>
<path stroke="#90a5c5" vector-effect="non-scaling-stroke" d="
  M 233.68 219.58
  L 233.61 233.89"
/>
<path stroke="#9395b9" vector-effect="non-scaling-stroke" d="
  M 233.61 233.89
  L 233.65 275.92
  A 0.72 0.72 0.0 0 0 234.38 276.64
  Q 257.39 276.35 277.12 265.00
  A 1.05 1.04 75.3 0 0 277.65 264.09
  L 277.64 250.79"
/>
<path stroke="#90a5c5" vector-effect="non-scaling-stroke" d="
  M 277.64 250.79
  L 277.69 177.02"
/>
<path stroke="#90b6d4" vector-effect="non-scaling-stroke" d="
  M 277.69 177.02
  L 277.67 160.76
  A 2.20 2.19 18.6 0 0 276.80 159.01
  L 267.81 152.26
  A 0.97 0.95 18.6 0 1 267.42 151.49
  L 267.41 137.12"
/>
<path stroke="#8fc9e7" vector-effect="non-scaling-stroke" d="
  M 267.41 137.12
  Q 267.47 127.04 267.51 116.74
  C 267.52 115.00 267.69 113.98 266.30 112.71
  Q 248.84 96.71 234.68 82.72
  A 0.74 0.74 0.0 0 0 233.65 82.72
  L 206.56 108.78
  A 1.88 1.87 -12.5 0 0 206.07 109.54
  Q 205.32 111.76 205.58 114.30"
/>
<path stroke="#1f80bc" vector-effect="non-scaling-stroke" d="
  M 267.41 137.12
  Q 261.39 137.17 255.38 137.90
  C 252.55 138.25 248.24 138.27 246.15 137.50
  Q 239.96 135.19 233.56 133.15"
/>
<path stroke="#1f80bc" vector-effect="non-scaling-stroke" d="
  M 209.69 113.55
  L 205.58 114.30"
/>
<path stroke="#215c9a" vector-effect="non-scaling-stroke" d="
  M 277.69 177.02
  L 265.67 183.52
  A 2.61 2.60 -11.1 0 0 264.31 185.53
  C 263.92 188.98 263.83 192.62 262.90 195.98
  Q 256.94 217.50 233.68 219.58"
/>
<path stroke="#4780b4" vector-effect="non-scaling-stroke" d="
  M 233.63 218.48
  Q 242.23 215.94 244.41 215.00
  Q 260.38 208.14 260.87 189.89
  C 261.31 173.59 248.81 162.95 233.57 161.29"
/>
<path stroke="#243a7f" vector-effect="non-scaling-stroke" d="
  M 277.64 250.79
  L 277.39 233.63
  A 0.41 0.39 -6.9 0 0 276.89 233.25
  Q 255.43 238.56 233.61 233.89"
/>
<path stroke="#8fc9e7" vector-effect="non-scaling-stroke" d="
  M 266.84 106.70
  A 0.24 0.23 -12.4 0 0 266.59 107.09
  L 271.03 111.18
  A 3.06 3.05 21.4 0 1 272.02 113.43
  L 272.02 117.98
  A 1.44 1.43 17.8 0 0 272.63 119.15
  L 283.74 127.04
  A 0.65 0.64 -68.3 0 0 284.75 126.60
  Q 285.32 122.45 289.15 121.12
  A 0.51 0.50 55.2 0 0 289.30 120.25
  Q 279.15 111.93 266.84 106.70"
/>
<path stroke="#8fc9e7" vector-effect="non-scaling-stroke" d="
  M 184.70 127.89
  Q 191.55 121.79 200.64 117.26
  A 0.53 0.52 -12.5 0 0 200.93 116.81
  L 201.43 107.05
  A 0.11 0.11 0.0 0 0 201.28 106.94
  Q 188.65 112.43 179.12 121.04
  A 0.43 0.43 0.0 0 0 179.28 121.77
  Q 183.21 123.00 183.92 127.61
  A 0.47 0.47 0.0 0 0 184.70 127.89"
/>
<path stroke="#8fc9e7" vector-effect="non-scaling-stroke" d="
  M 274.08 149.81
  L 288.84 133.75
  A 2.75 2.70 21.5 0 1 290.92 132.87
  C 301.57 133.14 296.49 120.00 289.67 123.28
  C 286.79 124.66 286.73 127.14 286.61 130.10
  A 1.43 1.38 -23.6 0 1 286.25 130.98
  L 271.78 146.73
  A 1.80 1.80 0.0 0 0 271.89 149.28
  L 272.54 149.88
  A 1.09 1.08 -47.4 0 0 274.08 149.81"
/>
<path stroke="#90b6d4" vector-effect="non-scaling-stroke" d="
  M 172.87 124.64
  C 169.78 127.55 171.16 131.90 174.81 133.33
  A 1.30 1.13 52.0 0 0 175.27 133.42
  L 178.11 133.48
  A 0.95 0.94 -20.5 0 1 178.78 133.78
  L 192.76 148.30
  A 0.66 0.66 0.0 0 0 193.50 148.45
  Q 194.09 148.19 194.62 147.69
  Q 195.14 147.20 195.44 146.62
  A 0.66 0.66 0.0 0 0 195.33 145.87
  L 181.65 131.08
  A 0.95 0.94 -66.2 0 1 181.39 130.39
  L 181.49 127.55
  A 1.30 1.13 41.3 0 0 181.43 127.09
  C 180.21 123.36 175.95 121.73 172.87 124.64"
/>
<path stroke="#8fc9e7" vector-effect="non-scaling-stroke" d="
  M 299.4722 131.2734
  A 0.27 0.27 0.0 0 0 299.0956 131.2104
  L 292.6152 135.8328
  A 0.27 0.27 0.0 0 0 292.5522 136.2094
  L 294.2478 138.5866
  A 0.27 0.27 0.0 0 0 294.6244 138.6496
  L 301.1048 134.0272
  A 0.27 0.27 0.0 0 0 301.1678 133.6506
  L 299.4722 131.2734"
/>
<path stroke="#8fc9e7" vector-effect="non-scaling-stroke" d="
  M 167.56 134.85
  L 173.45 139.06
  A 0.71 0.71 0.0 0 0 174.44 138.90
  L 175.43 137.51
  A 0.76 0.28 -54.4 0 0 175.65 136.72
  L 169.06 132.01
  A 0.76 0.28 -54.4 0 0 168.39 132.46
  L 167.40 133.85
  A 0.71 0.71 0.0 0 0 167.56 134.85"
/>
<path stroke="#90b6d4" vector-effect="non-scaling-stroke" d="
  M 288.62 151.91
  A 0.77 0.77 0.0 0 1 288.93 151.45
  L 305.14 140.28
  A 0.77 0.77 0.0 0 0 305.34 139.21
  L 304.21 137.57
  A 0.77 0.77 0.0 0 0 303.14 137.38
  L 285.48 149.55
  A 0.77 0.77 0.0 0 0 285.17 150.01
  L 282.16 162.71
  A 0.77 0.77 0.0 0 0 283.18 163.61
  L 285.72 162.66
  A 0.77 0.77 0.0 0 0 286.20 162.12
  L 288.62 151.91"
/>
<path stroke="#90b6d4" vector-effect="non-scaling-stroke" d="
  M 184.62 162.89
  Q 185.00 156.34 182.83 150.96
  A 3.10 3.10 0.0 0 0 181.76 149.61
  L 165.08 137.77
  A 0.59 0.57 35.2 0 0 164.27 137.90
  L 162.78 140.01
  A 0.54 0.54 0.0 0 0 162.91 140.77
  Q 177.75 150.99 178.64 151.66
  C 181.92 154.13 180.10 163.19 183.93 163.49
  A 0.64 0.64 0.0 0 0 184.62 162.89"
/>
<path stroke="#90adca" vector-effect="non-scaling-stroke" d="
  M 311.37 192.47
  Q 310.79 205.58 305.84 217.72
  A 0.89 0.88 -65.4 0 0 306.25 218.84
  L 312.76 222.26
  A 0.79 0.79 0.0 0 0 313.86 221.85
  C 324.11 196.01 321.44 168.38 308.18 144.10
  A 0.70 0.70 0.0 0 0 307.17 143.85
  L 301.22 147.95
  A 0.90 0.89 57.6 0 0 300.96 149.14
  Q 311.19 166.69 311.34 187.83
  A 0.46 0.46 0.0 0 1 310.88 188.30
  L 297.31 188.30
  A 3.25 3.24 -20.0 0 1 294.83 187.15
  L 291.04 182.69
  A 1.34 1.32 69.5 0 0 290.03 182.22
  L 283.21 182.22
  A 0.65 0.64 90.0 0 0 282.57 182.87
  L 282.57 185.47
  A 0.76 0.76 0.0 0 0 283.33 186.23
  L 289.07 186.23
  A 0.83 0.80 -19.0 0 1 289.70 186.52
  L 293.95 191.53
  A 1.14 1.12 69.6 0 0 294.81 191.93
  L 310.85 191.93
  A 0.52 0.51 1.6 0 1 311.37 192.47"
/>
<path stroke="#90adca" vector-effect="non-scaling-stroke" d="
  M 156.50 187.94
  Q 156.56 167.66 167.28 149.33
  A 0.33 0.33 0.0 0 0 167.20 148.90
  L 160.52 143.89
  A 0.22 0.22 0.0 0 0 160.19 143.96
  Q 139.07 181.48 153.69 221.53
  A 0.73 0.71 64.8 0 0 154.72 221.91
  L 161.17 218.18
  A 0.96 0.96 0.0 0 0 161.59 217.00
  Q 157.10 205.27 156.55 192.79
  A 0.56 0.56 0.0 0 1 157.11 192.20
  L 171.91 192.20
  A 3.34 3.31 -68.5 0 0 174.35 191.13
  L 178.50 186.61
  A 0.92 0.91 21.2 0 1 179.17 186.32
  L 184.34 186.32
  A 0.31 0.30 -90.0 0 0 184.64 186.01
  L 184.64 182.85
  A 0.43 0.43 0.0 0 0 184.21 182.42
  L 177.87 182.42
  A 1.36 1.34 20.9 0 0 176.87 182.86
  L 172.04 188.12
  A 1.43 1.41 21.3 0 1 171.00 188.57
  L 157.13 188.57
  A 0.63 0.62 0.4 0 1 156.50 187.94"
/>
<path stroke="#90b6d4" vector-effect="non-scaling-stroke" d="
  M 282.74 174.57
  A 0.57 0.57 0.0 0 0 283.45 175.04
  L 297.08 171.45
  A 0.66 0.64 57.1 0 1 297.67 171.59
  C 306.33 178.64 311.02 164.94 303.29 163.20
  C 299.87 162.42 298.14 164.47 296.77 167.32
  A 0.94 0.93 -84.6 0 1 296.15 167.84
  L 283.13 171.26
  A 0.95 0.94 -11.6 0 0 282.44 172.31
  L 282.74 174.57"
/>
<path stroke="#90b6d4" vector-effect="non-scaling-stroke" d="
  M 184.57 172.01
  A 0.67 0.66 -83.5 0 0 184.06 171.36
  L 172.04 168.51
  A 0.90 0.89 88.8 0 1 171.38 167.87
  Q 169.87 162.14 164.22 163.71
  C 161.36 164.50 160.27 168.85 161.44 171.09
  C 163.25 174.54 167.19 174.68 170.11 172.25
  A 1.24 1.24 0.0 0 1 171.20 172.00
  L 184.12 175.06
  A 0.37 0.36 -83.2 0 0 184.57 174.70
  L 184.57 172.01"
/>
<path stroke="#90a5c5" vector-effect="non-scaling-stroke" d="
  M 204.16 197.89
  L 156.25 225.59
  A 0.90 0.90 0.0 0 0 155.85 226.68
  L 157.15 230.17
  A 0.81 0.81 0.0 0 0 158.33 230.58
  L 206.74 201.19"
/>
<path stroke="#90b6d4" vector-effect="non-scaling-stroke" d="
  M 206.74 201.19
  Q 211.20 198.44 215.67 195.56
  A 0.84 0.84 0.0 0 1 216.95 196.15
  Q 217.07 196.97 215.99 197.71"
/>
<path stroke="#90a5c5" vector-effect="non-scaling-stroke" d="
  M 215.99 197.71
  L 190.92 216.82
  A 1.57 1.57 0.0 0 0 190.30 218.07
  L 190.24 225.75
  A 1.44 1.43 70.3 0 1 189.74 226.82
  L 168.27 245.03
  A 0.84 0.84 0.0 0 0 168.18 246.21
  L 170.36 248.78
  A 0.84 0.84 0.0 0 0 171.55 248.88
  L 194.01 229.82
  A 2.23 2.19 70.9 0 0 194.79 228.17
  L 194.88 220.81
  A 1.74 1.73 70.3 0 1 195.49 219.51
  L 217.72 200.70"
/>
<path stroke="#90b6d4" vector-effect="non-scaling-stroke" d="
  M 217.72 200.70
  Q 218.38 200.16 218.76 200.14
  A 0.82 0.82 0.0 0 1 219.40 201.54
  L 199.85 220.92
  A 2.12 2.11 -21.6 0 0 199.23 222.34
  L 198.97 230.43
  A 0.75 0.72 -62.3 0 0 199.10 230.88
  L 202.41 235.67
  A 1.42 1.41 -43.8 0 1 202.37 237.33
  L 185.21 260.17
  A 0.85 0.84 36.3 0 0 185.40 261.37
  L 188.36 263.48
  A 1.01 1.01 0.0 0 0 189.76 263.24
  L 208.17 237.30
  A 1.60 1.58 -43.7 0 0 208.22 235.54
  C 205.33 230.91 202.62 228.35 204.39 223.65
  A 2.99 2.79 -15.2 0 1 204.94 222.76
  L 221.89 204.31
  A 0.87 0.87 0.0 0 1 223.39 205.06
  Q 223.32 205.48 222.61 205.99"
/>
<path stroke="#9395b9" vector-effect="non-scaling-stroke" d="
  M 222.61 205.99
  L 207.95 224.32
  A 0.63 0.63 0.0 0 0 207.97 225.12
  L 213.43 231.56
  A 2.32 2.29 28.4 0 1 213.96 233.30
  L 212.06 250.52
  A 1.57 1.53 -15.6 0 1 211.43 251.61
  C 208.85 253.51 206.79 255.23 207.95 258.88
  A 0.85 0.82 17.3 0 0 208.11 259.17
  L 209.65 261.09
  A 0.93 0.92 28.7 0 1 209.86 261.80
  L 208.72 272.16
  A 1.04 1.04 0.0 0 0 209.63 273.30
  L 212.86 273.65
  A 0.66 0.66 0.0 0 0 213.60 273.06
  L 214.79 262.32
  A 0.79 0.77 -15.7 0 1 215.09 261.80
  C 218.35 259.33 219.46 256.38 216.34 253.08
  C 214.90 251.56 216.24 249.56 216.37 247.88
  Q 217.04 239.21 218.18 232.27
  A 2.48 2.44 -58.2 0 0 217.78 230.50
  L 214.26 225.39
  A 1.20 1.17 -45.1 0 1 214.27 224.02
  L 225.84 207.77"
/>
<path stroke="#90b6d4" vector-effect="non-scaling-stroke" d="
  M 225.84 207.77
  Q 226.46 206.57 227.84 206.94
  A 0.74 0.74 0.0 0 1 228.28 208.04
  Q 223.03 216.64 221.05 225.11"
/>
<path stroke="#9395b9" vector-effect="non-scaling-stroke" d="
  M 221.05 225.11
  L 220.96 275.23
  A 0.47 0.46 -0.6 0 0 221.44 275.69
  Q 223.64 275.64 225.79 276.38
  A 0.34 0.34 0.0 0 0 226.24 276.06
  L 226.39 224.06"
/>
<path stroke="#90b6d4" vector-effect="non-scaling-stroke" d="
  M 226.39 224.06
  Q 226.11 222.81 226.56 221.83
  Q 229.80 214.70 232.22 208.80
  A 0.77 0.77 0.0 0 1 232.95 208.32
  Q 245.46 208.55 250.83 197.29
  Q 253.47 191.76 251.84 186.04
  Q 248.43 174.10 236.35 171.98
  C 226.15 170.20 218.54 177.42 216.18 186.73
  C 215.86 187.99 216.04 189.55 215.78 190.78
  A 1.24 1.23 81.7 0 1 215.18 191.59
  L 204.16 197.89"
/>
<path stroke="#244c8e" vector-effect="non-scaling-stroke" d="
  M 226.39 224.06
  L 221.05 225.11"
/>
<path stroke="#244c8e" vector-effect="non-scaling-stroke" d="
  M 225.84 207.77
  Q 224.51 206.55 222.61 205.99"
/>
<path stroke="#215c9a" vector-effect="non-scaling-stroke" d="
  M 217.72 200.70
  L 215.99 197.71"
/>
<path stroke="#215c9a" vector-effect="non-scaling-stroke" d="
  M 206.74 201.19
  L 204.16 197.89"
/>
<path stroke="#90a5c5" vector-effect="non-scaling-stroke" d="
  M 282.83 197.29
  L 282.58 199.58
  A 0.96 0.95 10.2 0 0 283.31 200.62
  L 296.55 203.76
  A 0.95 0.94 83.1 0 1 297.19 204.27
  C 298.64 207.11 300.44 209.14 303.88 208.27
  C 311.65 206.32 306.57 192.59 297.99 199.93
  A 0.67 0.65 -58.5 0 1 297.40 200.08
  L 283.54 196.79
  A 0.58 0.58 0.0 0 0 282.83 197.29"
/>
<path stroke="#90a5c5" vector-effect="non-scaling-stroke" d="
  M 184.88 197.44
  A 0.57 0.57 0.0 0 0 184.18 196.95
  L 170.56 200.27
  A 0.66 0.64 58.2 0 1 169.98 200.12
  C 161.50 192.95 156.58 206.49 164.24 208.36
  C 167.63 209.20 169.38 207.19 170.79 204.39
  A 0.94 0.93 -83.5 0 1 171.42 203.88
  L 184.43 200.72
  A 0.95 0.94 -10.5 0 0 185.14 199.69
  L 184.88 197.44"
/>
<path stroke="#90a5c5" vector-effect="non-scaling-stroke" d="
  M 288.17 207.71
  A 0.67 0.67 0.0 0 0 287.85 207.35
  L 283.64 205.14
  A 0.67 0.67 0.0 0 0 282.66 205.74
  L 282.66 208.62
  A 0.67 0.67 0.0 0 0 283.02 209.21
  L 284.69 210.09
  A 0.67 0.67 0.0 0 1 285.01 210.45
  L 287.72 217.74
  A 0.67 0.67 0.0 0 0 288.04 218.10
  L 309.66 229.44
  A 0.67 0.67 0.0 0 0 310.56 229.16
  L 311.71 226.96
  A 0.67 0.67 0.0 0 0 311.43 226.06
  L 291.24 215.47
  A 0.67 0.67 0.0 0 1 290.92 215.11
  L 288.17 207.71"
/>
<path stroke="#9395b9" vector-effect="non-scaling-stroke" d="
  M 162.30 238.36
  Q 163.06 239.46 163.35 239.84
  A 0.54 0.54 0.0 0 0 164.08 239.96
  L 176.59 231.33
  A 0.73 0.71 36.4 0 1 177.22 231.24
  C 178.70 231.73 180.34 232.10 181.80 231.30
  C 184.42 229.87 185.37 226.36 183.59 223.76
  C 181.80 221.15 178.18 220.78 175.90 222.71
  C 174.63 223.78 174.39 225.45 174.31 227.00
  A 0.73 0.71 74.7 0 1 174.00 227.56
  L 161.45 236.13
  A 0.54 0.54 0.0 0 0 161.30 236.85
  Q 161.54 237.26 162.30 238.36"
/>
<path stroke="#9395b9" vector-effect="non-scaling-stroke" d="
  M 282.40 260.79
  A 0.42 0.42 0.0 0 0 283.06 261.14
  Q 298.83 250.47 308.30 233.66
  A 0.48 0.48 0.0 0 0 308.10 233.00
  L 301.44 229.51
  A 0.53 0.53 0.0 0 0 300.73 229.71
  Q 293.81 241.42 283.15 249.99
  A 2.00 2.00 0.0 0 0 282.40 251.55
  L 282.40 260.79"
/>
<path stroke="#9395b9" vector-effect="non-scaling-stroke" d="
  M 180.47 256.64
  L 186.28 248.91
  A 1.76 1.76 0.0 0 1 187.96 248.22
  C 193.68 249.11 196.23 242.27 191.75 238.97
  C 187.10 235.56 184.05 240.47 183.93 244.71
  A 1.63 1.63 0.0 0 1 183.49 245.80
  L 176.62 253.29
  A 0.86 0.85 42.8 0 0 176.67 254.49
  L 179.14 256.76
  A 0.90 0.90 0.0 0 0 180.47 256.64"
/>
<path stroke="#9395b9" vector-effect="non-scaling-stroke" d="
  M 193.10 264.86
  A 0.82 0.82 0.0 0 0 193.39 266.06
  L 203.25 271.23
  A 0.82 0.82 0.0 0 0 204.44 270.60
  L 205.27 263.15
  A 0.82 0.82 0.0 0 0 204.83 262.33
  L 198.22 258.86
  A 0.82 0.82 0.0 0 0 197.18 259.11
  L 193.10 264.86"
/>
<path stroke="#9395b9" vector-effect="non-scaling-stroke" d="
  M 181.6503 305.7981
  A 5.91 5.39 -179.4 0 0 187.5036 311.2497
  A 5.91 5.39 -179.4 0 0 193.4697 305.9219
  A 5.91 5.39 -179.4 0 0 187.6164 300.4703
  A 5.91 5.39 -179.4 0 0 181.6503 305.7981"
/>
<path stroke="#9395b9" vector-effect="non-scaling-stroke" d="
  M 242.41 329.03
  Q 249.78 329.02 250.72 329.05
  A 0.65 0.65 0.0 0 1 251.35 329.70
  L 251.35 345.13
  A 0.57 0.57 0.0 0 0 251.92 345.70
  L 260.92 345.70
  A 0.43 0.43 0.0 0 0 261.35 345.27
  L 261.35 305.32
  A 0.63 0.62 0.0 0 0 260.72 304.70
  L 251.97 304.70
  A 0.71 0.70 -0.0 0 0 251.26 305.40
  L 251.26 319.86
  A 0.64 0.64 0.0 0 1 250.68 320.49
  Q 249.29 320.62 242.40 320.63
  Q 235.51 320.64 234.12 320.52
  A 0.64 0.64 0.0 0 1 233.54 319.89
  L 233.49 305.43
  A 0.71 0.70 -0.2 0 0 232.78 304.73
  L 224.03 304.75
  A 0.63 0.62 -0.2 0 0 223.40 305.38
  L 223.52 345.33
  A 0.43 0.43 0.0 0 0 223.95 345.75
  L 232.95 345.73
  A 0.57 0.57 0.0 0 0 233.52 345.16
  L 233.48 329.73
  A 0.65 0.65 0.0 0 1 234.11 329.08
  Q 235.04 329.04 242.41 329.03"
/>
<path stroke="#9395b9" vector-effect="non-scaling-stroke" d="
  M 285.21 305.27
  A 0.43 0.43 0.0 0 0 284.78 304.84
  L 267.37 304.84
  A 0.43 0.43 0.0 0 0 266.94 305.27
  L 266.94 312.65
  A 0.43 0.43 0.0 0 0 267.37 313.08
  L 274.60 313.08
  A 0.43 0.43 0.0 0 1 275.03 313.51
  L 275.03 345.24
  A 0.43 0.43 0.0 0 0 275.46 345.67
  L 284.78 345.67
  A 0.43 0.43 0.0 0 0 285.21 345.24
  L 285.21 305.27"
/>
<path stroke="#9395b9" vector-effect="non-scaling-stroke" d="
  M 192.30 316.08
  A 0.69 0.69 0.0 0 0 191.61 315.39
  L 183.35 315.39
  A 0.69 0.69 0.0 0 0 182.66 316.08
  L 182.66 344.92
  A 0.69 0.69 0.0 0 0 183.35 345.61
  L 191.61 345.61
  A 0.69 0.69 0.0 0 0 192.30 344.92
  L 192.30 316.08"
/>
<path stroke="#9395b9" vector-effect="non-scaling-stroke" d="
  M 216.1186 327.1309
  A 0.63 0.63 0.0 0 0 215.4864 326.5031
  L 200.0865 326.5569
  A 0.63 0.63 0.0 0 0 199.4587 327.1891
  L 199.4814 333.6691
  A 0.63 0.63 0.0 0 0 200.1136 334.2969
  L 215.5135 334.2431
  A 0.63 0.63 0.0 0 0 216.1413 333.6109
  L 216.1186 327.1309"
/>
<path stroke="#90b6d4" vector-effect="non-scaling-stroke" d="
  M 209.41 135.75
  Q 209.40 138.55 209.41 141.35
  A 0.40 0.39 -15.2 0 0 210.00 141.69
  L 214.89 138.87
  A 1.33 1.33 0.0 0 0 215.56 137.79
  Q 215.59 137.28 215.59 135.53
  Q 215.61 132.73 215.60 129.92
  A 0.40 0.39 -15.2 0 0 215.00 129.59
  L 210.11 132.41
  A 1.33 1.33 0.0 0 0 209.45 133.49
  Q 209.42 134.00 209.41 135.75"
/>
<path stroke="#8fc9e7" vector-effect="non-scaling-stroke" d="
  M 294.18 127.98
  A 2.42 2.42 0.0 0 0 291.76 125.56
  A 2.42 2.42 0.0 0 0 289.34 127.98
  A 2.42 2.42 0.0 0 0 291.76 130.40
  A 2.42 2.42 0.0 0 0 294.18 127.98"
/>
<path stroke="#90b6d4" vector-effect="non-scaling-stroke" d="
  M 178.94 128.38
  A 2.57 2.57 0.0 0 0 176.37 125.81
  A 2.57 2.57 0.0 0 0 173.80 128.38
  A 2.57 2.57 0.0 0 0 176.37 130.95
  A 2.57 2.57 0.0 0 0 178.94 128.38"
/>
<path stroke="#90b6d4" vector-effect="non-scaling-stroke" d="
  M 304.58 168.31
  A 2.58 2.58 0.0 0 0 302.00 165.73
  A 2.58 2.58 0.0 0 0 299.42 168.31
  A 2.58 2.58 0.0 0 0 302.00 170.89
  A 2.58 2.58 0.0 0 0 304.58 168.31"
/>
<path stroke="#90b6d4" vector-effect="non-scaling-stroke" d="
  M 168.67 168.58
  A 2.59 2.59 0.0 0 0 166.08 165.99
  A 2.59 2.59 0.0 0 0 163.49 168.58
  A 2.59 2.59 0.0 0 0 166.08 171.17
  A 2.59 2.59 0.0 0 0 168.67 168.58"
/>
<path stroke="#90b6d4" vector-effect="non-scaling-stroke" d="
  M 234.17 193.67
  Q 235.29 193.68 235.77 193.85
  A 1.63 1.61 81.9 0 1 236.56 194.45
  Q 237.62 196.00 237.37 198.77
  A 0.66 0.66 0.0 0 0 238.03 199.49
  L 243.59 199.49
  A 0.67 0.67 0.0 0 0 244.26 198.82
  L 244.26 181.50
  A 0.72 0.71 90.0 0 0 243.55 180.78
  L 241.89 180.78
  A 0.78 0.78 0.0 0 0 241.11 181.56
  L 241.11 190.00
  A 0.79 0.78 -90.0 0 1 240.33 190.79
  L 239.79 190.79
  A 0.99 0.99 0.0 0 1 238.80 189.80
  L 238.80 181.63
  A 0.83 0.82 -0.0 0 0 237.97 180.81
  L 236.21 180.81
  A 0.81 0.81 0.0 0 0 235.40 181.62
  L 235.40 189.46
  A 0.74 0.74 0.0 0 1 234.80 190.18
  Q 234.59 190.23 234.18 190.23
  Q 233.77 190.22 233.56 190.18
  A 0.74 0.74 0.0 0 1 232.96 189.45
  L 233.01 181.61
  A 0.81 0.81 0.0 0 0 232.20 180.80
  L 230.44 180.79
  A 0.83 0.82 0.3 0 0 229.61 181.60
  L 229.56 189.77
  A 0.99 0.99 0.0 0 1 228.57 190.76
  L 228.03 190.76
  A 0.79 0.78 -89.7 0 1 227.25 189.96
  L 227.30 181.52
  A 0.78 0.78 0.0 0 0 226.52 180.74
  L 224.86 180.73
  A 0.72 0.71 -89.7 0 0 224.15 181.44
  L 224.05 198.76
  A 0.67 0.67 0.0 0 0 224.72 199.44
  L 230.28 199.47
  A 0.66 0.66 0.0 0 0 230.94 198.75
  Q 230.71 195.98 231.78 194.44
  A 1.63 1.61 -81.5 0 1 232.57 193.84
  Q 233.05 193.67 234.17 193.67"
/>
<path stroke="#90a5c5" vector-effect="non-scaling-stroke" d="
  M 305.11 203.23
  A 2.56 2.56 0.0 0 0 302.55 200.67
  A 2.56 2.56 0.0 0 0 299.99 203.23
  A 2.56 2.56 0.0 0 0 302.55 205.79
  A 2.56 2.56 0.0 0 0 305.11 203.23"
/>
<path stroke="#90a5c5" vector-effect="non-scaling-stroke" d="
  M 168.07 203.40
  A 2.59 2.59 0.0 0 0 165.48 200.81
  A 2.59 2.59 0.0 0 0 162.89 203.40
  A 2.59 2.59 0.0 0 0 165.48 205.99
  A 2.59 2.59 0.0 0 0 168.07 203.40"
/>
<path stroke="#9395b9" vector-effect="non-scaling-stroke" d="
  M 215.42 256.90
  A 2.38 2.38 0.0 0 0 213.04 254.52
  A 2.38 2.38 0.0 0 0 210.66 256.90
  A 2.38 2.38 0.0 0 0 213.04 259.28
  A 2.38 2.38 0.0 0 0 215.42 256.90"
/>
<path stroke="#9395b9" vector-effect="non-scaling-stroke" d="
  M 181.87 226.60
  A 2.48 2.48 0.0 0 0 179.39 224.12
  A 2.48 2.48 0.0 0 0 176.91 226.60
  A 2.48 2.48 0.0 0 0 179.39 229.08
  A 2.48 2.48 0.0 0 0 181.87 226.60"
/>
<path stroke="#9395b9" vector-effect="non-scaling-stroke" d="
  M 191.59 243.33
  A 2.45 2.45 0.0 0 0 189.14 240.88
  A 2.45 2.45 0.0 0 0 186.69 243.33
  A 2.45 2.45 0.0 0 0 189.14 245.78
  A 2.45 2.45 0.0 0 0 191.59 243.33"
/>
</g>
<path fill="#ffffff" d="
  M 469.00 0.00
  L 469.00 402.00
  L 0.00 402.00
  L 0.00 0.00
  L 469.00 0.00
  Z
  M 205.58 114.30
  L 205.43 143.73
  A 2.30 2.28 -19.0 0 1 204.54 145.54
  L 190.30 156.50
  A 1.80 1.79 -18.7 0 0 189.59 157.93
  L 189.59 200.87
  A 0.61 0.61 0.0 0 0 190.50 201.40
  L 207.69 191.48
  A 1.45 1.44 -15.2 0 0 208.41 190.23
  L 208.41 152.21
  A 0.24 0.24 0.0 0 1 208.53 152.00
  L 215.15 148.18
  A 0.18 0.18 0.0 0 1 215.42 148.34
  L 215.43 179.07
  A 0.08 0.03 -87.1 0 0 215.45 179.14
  Q 215.48 179.14 215.51 179.14
  A 0.26 0.16 -69.7 0 0 215.67 179.01
  Q 217.78 175.52 221.01 172.79
  A 3.54 3.51 -20.4 0 0 222.25 170.11
  L 222.25 119.38
  A 0.39 0.39 0.0 0 0 221.64 119.06
  L 210.51 126.73
  A 0.42 0.41 -17.8 0 1 209.86 126.40
  L 209.69 113.55
  Q 209.66 111.47 210.88 110.38
  Q 221.84 100.56 232.69 89.65
  A 0.44 0.44 0.0 0 1 233.42 89.84
  L 233.55 90.30
  A 0.32 0.24 -63.4 0 1 233.57 90.41
  L 233.56 133.15
  L 233.57 161.29
  L 233.69 167.68
  A 0.60 0.59 -87.2 0 0 234.21 168.26
  Q 238.31 168.74 239.75 169.21
  Q 249.58 172.45 253.28 180.69
  C 257.00 188.95 255.30 200.29 248.46 206.16
  Q 242.72 211.07 234.57 211.90
  A 0.74 0.74 0.0 0 0 233.94 212.46
  Q 233.26 215.44 233.63 218.48
  Q 233.57 219.29 233.68 219.58
  L 233.61 233.89
  L 233.65 275.92
  A 0.72 0.72 0.0 0 0 234.38 276.64
  Q 257.39 276.35 277.12 265.00
  A 1.05 1.04 75.3 0 0 277.65 264.09
  L 277.64 250.79
  L 277.69 177.02
  L 277.67 160.76
  A 2.20 2.19 18.6 0 0 276.80 159.01
  L 267.81 152.26
  A 0.97 0.95 18.6 0 1 267.42 151.49
  L 267.41 137.12
  Q 267.47 127.04 267.51 116.74
  C 267.52 115.00 267.69 113.98 266.30 112.71
  Q 248.84 96.71 234.68 82.72
  A 0.74 0.74 0.0 0 0 233.65 82.72
  L 206.56 108.78
  A 1.88 1.87 -12.5 0 0 206.07 109.54
  Q 205.32 111.76 205.58 114.30
  Z
  M 266.84 106.70
  A 0.24 0.23 -12.4 0 0 266.59 107.09
  L 271.03 111.18
  A 3.06 3.05 21.4 0 1 272.02 113.43
  L 272.02 117.98
  A 1.44 1.43 17.8 0 0 272.63 119.15
  L 283.74 127.04
  A 0.65 0.64 -68.3 0 0 284.75 126.60
  Q 285.32 122.45 289.15 121.12
  A 0.51 0.50 55.2 0 0 289.30 120.25
  Q 279.15 111.93 266.84 106.70
  Z
  M 184.70 127.89
  Q 191.55 121.79 200.64 117.26
  A 0.53 0.52 -12.5 0 0 200.93 116.81
  L 201.43 107.05
  A 0.11 0.11 0.0 0 0 201.28 106.94
  Q 188.65 112.43 179.12 121.04
  A 0.43 0.43 0.0 0 0 179.28 121.77
  Q 183.21 123.00 183.92 127.61
  A 0.47 0.47 0.0 0 0 184.70 127.89
  Z
  M 274.08 149.81
  L 288.84 133.75
  A 2.75 2.70 21.5 0 1 290.92 132.87
  C 301.57 133.14 296.49 120.00 289.67 123.28
  C 286.79 124.66 286.73 127.14 286.61 130.10
  A 1.43 1.38 -23.6 0 1 286.25 130.98
  L 271.78 146.73
  A 1.80 1.80 0.0 0 0 271.89 149.28
  L 272.54 149.88
  A 1.09 1.08 -47.4 0 0 274.08 149.81
  Z
  M 172.87 124.64
  C 169.78 127.55 171.16 131.90 174.81 133.33
  A 1.30 1.13 52.0 0 0 175.27 133.42
  L 178.11 133.48
  A 0.95 0.94 -20.5 0 1 178.78 133.78
  L 192.76 148.30
  A 0.66 0.66 0.0 0 0 193.50 148.45
  Q 194.09 148.19 194.62 147.69
  Q 195.14 147.20 195.44 146.62
  A 0.66 0.66 0.0 0 0 195.33 145.87
  L 181.65 131.08
  A 0.95 0.94 -66.2 0 1 181.39 130.39
  L 181.49 127.55
  A 1.30 1.13 41.3 0 0 181.43 127.09
  C 180.21 123.36 175.95 121.73 172.87 124.64
  Z
  M 299.4722 131.2734
  A 0.27 0.27 0.0 0 0 299.0956 131.2104
  L 292.6152 135.8328
  A 0.27 0.27 0.0 0 0 292.5522 136.2094
  L 294.2478 138.5866
  A 0.27 0.27 0.0 0 0 294.6244 138.6496
  L 301.1048 134.0272
  A 0.27 0.27 0.0 0 0 301.1678 133.6506
  L 299.4722 131.2734
  Z
  M 167.56 134.85
  L 173.45 139.06
  A 0.71 0.71 0.0 0 0 174.44 138.90
  L 175.43 137.51
  A 0.76 0.28 -54.4 0 0 175.65 136.72
  L 169.06 132.01
  A 0.76 0.28 -54.4 0 0 168.39 132.46
  L 167.40 133.85
  A 0.71 0.71 0.0 0 0 167.56 134.85
  Z
  M 288.62 151.91
  A 0.77 0.77 0.0 0 1 288.93 151.45
  L 305.14 140.28
  A 0.77 0.77 0.0 0 0 305.34 139.21
  L 304.21 137.57
  A 0.77 0.77 0.0 0 0 303.14 137.38
  L 285.48 149.55
  A 0.77 0.77 0.0 0 0 285.17 150.01
  L 282.16 162.71
  A 0.77 0.77 0.0 0 0 283.18 163.61
  L 285.72 162.66
  A 0.77 0.77 0.0 0 0 286.20 162.12
  L 288.62 151.91
  Z
  M 184.62 162.89
  Q 185.00 156.34 182.83 150.96
  A 3.10 3.10 0.0 0 0 181.76 149.61
  L 165.08 137.77
  A 0.59 0.57 35.2 0 0 164.27 137.90
  L 162.78 140.01
  A 0.54 0.54 0.0 0 0 162.91 140.77
  Q 177.75 150.99 178.64 151.66
  C 181.92 154.13 180.10 163.19 183.93 163.49
  A 0.64 0.64 0.0 0 0 184.62 162.89
  Z
  M 311.37 192.47
  Q 310.79 205.58 305.84 217.72
  A 0.89 0.88 -65.4 0 0 306.25 218.84
  L 312.76 222.26
  A 0.79 0.79 0.0 0 0 313.86 221.85
  C 324.11 196.01 321.44 168.38 308.18 144.10
  A 0.70 0.70 0.0 0 0 307.17 143.85
  L 301.22 147.95
  A 0.90 0.89 57.6 0 0 300.96 149.14
  Q 311.19 166.69 311.34 187.83
  A 0.46 0.46 0.0 0 1 310.88 188.30
  L 297.31 188.30
  A 3.25 3.24 -20.0 0 1 294.83 187.15
  L 291.04 182.69
  A 1.34 1.32 69.5 0 0 290.03 182.22
  L 283.21 182.22
  A 0.65 0.64 90.0 0 0 282.57 182.87
  L 282.57 185.47
  A 0.76 0.76 0.0 0 0 283.33 186.23
  L 289.07 186.23
  A 0.83 0.80 -19.0 0 1 289.70 186.52
  L 293.95 191.53
  A 1.14 1.12 69.6 0 0 294.81 191.93
  L 310.85 191.93
  A 0.52 0.51 1.6 0 1 311.37 192.47
  Z
  M 156.50 187.94
  Q 156.56 167.66 167.28 149.33
  A 0.33 0.33 0.0 0 0 167.20 148.90
  L 160.52 143.89
  A 0.22 0.22 0.0 0 0 160.19 143.96
  Q 139.07 181.48 153.69 221.53
  A 0.73 0.71 64.8 0 0 154.72 221.91
  L 161.17 218.18
  A 0.96 0.96 0.0 0 0 161.59 217.00
  Q 157.10 205.27 156.55 192.79
  A 0.56 0.56 0.0 0 1 157.11 192.20
  L 171.91 192.20
  A 3.34 3.31 -68.5 0 0 174.35 191.13
  L 178.50 186.61
  A 0.92 0.91 21.2 0 1 179.17 186.32
  L 184.34 186.32
  A 0.31 0.30 -90.0 0 0 184.64 186.01
  L 184.64 182.85
  A 0.43 0.43 0.0 0 0 184.21 182.42
  L 177.87 182.42
  A 1.36 1.34 20.9 0 0 176.87 182.86
  L 172.04 188.12
  A 1.43 1.41 21.3 0 1 171.00 188.57
  L 157.13 188.57
  A 0.63 0.62 0.4 0 1 156.50 187.94
  Z
  M 282.74 174.57
  A 0.57 0.57 0.0 0 0 283.45 175.04
  L 297.08 171.45
  A 0.66 0.64 57.1 0 1 297.67 171.59
  C 306.33 178.64 311.02 164.94 303.29 163.20
  C 299.87 162.42 298.14 164.47 296.77 167.32
  A 0.94 0.93 -84.6 0 1 296.15 167.84
  L 283.13 171.26
  A 0.95 0.94 -11.6 0 0 282.44 172.31
  L 282.74 174.57
  Z
  M 184.57 172.01
  A 0.67 0.66 -83.5 0 0 184.06 171.36
  L 172.04 168.51
  A 0.90 0.89 88.8 0 1 171.38 167.87
  Q 169.87 162.14 164.22 163.71
  C 161.36 164.50 160.27 168.85 161.44 171.09
  C 163.25 174.54 167.19 174.68 170.11 172.25
  A 1.24 1.24 0.0 0 1 171.20 172.00
  L 184.12 175.06
  A 0.37 0.36 -83.2 0 0 184.57 174.70
  L 184.57 172.01
  Z
  M 204.16 197.89
  L 156.25 225.59
  A 0.90 0.90 0.0 0 0 155.85 226.68
  L 157.15 230.17
  A 0.81 0.81 0.0 0 0 158.33 230.58
  L 206.74 201.19
  Q 211.20 198.44 215.67 195.56
  A 0.84 0.84 0.0 0 1 216.95 196.15
  Q 217.07 196.97 215.99 197.71
  L 190.92 216.82
  A 1.57 1.57 0.0 0 0 190.30 218.07
  L 190.24 225.75
  A 1.44 1.43 70.3 0 1 189.74 226.82
  L 168.27 245.03
  A 0.84 0.84 0.0 0 0 168.18 246.21
  L 170.36 248.78
  A 0.84 0.84 0.0 0 0 171.55 248.88
  L 194.01 229.82
  A 2.23 2.19 70.9 0 0 194.79 228.17
  L 194.88 220.81
  A 1.74 1.73 70.3 0 1 195.49 219.51
  L 217.72 200.70
  Q 218.38 200.16 218.76 200.14
  A 0.82 0.82 0.0 0 1 219.40 201.54
  L 199.85 220.92
  A 2.12 2.11 -21.6 0 0 199.23 222.34
  L 198.97 230.43
  A 0.75 0.72 -62.3 0 0 199.10 230.88
  L 202.41 235.67
  A 1.42 1.41 -43.8 0 1 202.37 237.33
  L 185.21 260.17
  A 0.85 0.84 36.3 0 0 185.40 261.37
  L 188.36 263.48
  A 1.01 1.01 0.0 0 0 189.76 263.24
  L 208.17 237.30
  A 1.60 1.58 -43.7 0 0 208.22 235.54
  C 205.33 230.91 202.62 228.35 204.39 223.65
  A 2.99 2.79 -15.2 0 1 204.94 222.76
  L 221.89 204.31
  A 0.87 0.87 0.0 0 1 223.39 205.06
  Q 223.32 205.48 222.61 205.99
  L 207.95 224.32
  A 0.63 0.63 0.0 0 0 207.97 225.12
  L 213.43 231.56
  A 2.32 2.29 28.4 0 1 213.96 233.30
  L 212.06 250.52
  A 1.57 1.53 -15.6 0 1 211.43 251.61
  C 208.85 253.51 206.79 255.23 207.95 258.88
  A 0.85 0.82 17.3 0 0 208.11 259.17
  L 209.65 261.09
  A 0.93 0.92 28.7 0 1 209.86 261.80
  L 208.72 272.16
  A 1.04 1.04 0.0 0 0 209.63 273.30
  L 212.86 273.65
  A 0.66 0.66 0.0 0 0 213.60 273.06
  L 214.79 262.32
  A 0.79 0.77 -15.7 0 1 215.09 261.80
  C 218.35 259.33 219.46 256.38 216.34 253.08
  C 214.90 251.56 216.24 249.56 216.37 247.88
  Q 217.04 239.21 218.18 232.27
  A 2.48 2.44 -58.2 0 0 217.78 230.50
  L 214.26 225.39
  A 1.20 1.17 -45.1 0 1 214.27 224.02
  L 225.84 207.77
  Q 226.46 206.57 227.84 206.94
  A 0.74 0.74 0.0 0 1 228.28 208.04
  Q 223.03 216.64 221.05 225.11
  L 220.96 275.23
  A 0.47 0.46 -0.6 0 0 221.44 275.69
  Q 223.64 275.64 225.79 276.38
  A 0.34 0.34 0.0 0 0 226.24 276.06
  L 226.39 224.06
  Q 226.11 222.81 226.56 221.83
  Q 229.80 214.70 232.22 208.80
  A 0.77 0.77 0.0 0 1 232.95 208.32
  Q 245.46 208.55 250.83 197.29
  Q 253.47 191.76 251.84 186.04
  Q 248.43 174.10 236.35 171.98
  C 226.15 170.20 218.54 177.42 216.18 186.73
  C 215.86 187.99 216.04 189.55 215.78 190.78
  A 1.24 1.23 81.7 0 1 215.18 191.59
  L 204.16 197.89
  Z
  M 282.83 197.29
  L 282.58 199.58
  A 0.96 0.95 10.2 0 0 283.31 200.62
  L 296.55 203.76
  A 0.95 0.94 83.1 0 1 297.19 204.27
  C 298.64 207.11 300.44 209.14 303.88 208.27
  C 311.65 206.32 306.57 192.59 297.99 199.93
  A 0.67 0.65 -58.5 0 1 297.40 200.08
  L 283.54 196.79
  A 0.58 0.58 0.0 0 0 282.83 197.29
  Z
  M 184.88 197.44
  A 0.57 0.57 0.0 0 0 184.18 196.95
  L 170.56 200.27
  A 0.66 0.64 58.2 0 1 169.98 200.12
  C 161.50 192.95 156.58 206.49 164.24 208.36
  C 167.63 209.20 169.38 207.19 170.79 204.39
  A 0.94 0.93 -83.5 0 1 171.42 203.88
  L 184.43 200.72
  A 0.95 0.94 -10.5 0 0 185.14 199.69
  L 184.88 197.44
  Z
  M 288.17 207.71
  A 0.67 0.67 0.0 0 0 287.85 207.35
  L 283.64 205.14
  A 0.67 0.67 0.0 0 0 282.66 205.74
  L 282.66 208.62
  A 0.67 0.67 0.0 0 0 283.02 209.21
  L 284.69 210.09
  A 0.67 0.67 0.0 0 1 285.01 210.45
  L 287.72 217.74
  A 0.67 0.67 0.0 0 0 288.04 218.10
  L 309.66 229.44
  A 0.67 0.67 0.0 0 0 310.56 229.16
  L 311.71 226.96
  A 0.67 0.67 0.0 0 0 311.43 226.06
  L 291.24 215.47
  A 0.67 0.67 0.0 0 1 290.92 215.11
  L 288.17 207.71
  Z
  M 162.30 238.36
  Q 163.06 239.46 163.35 239.84
  A 0.54 0.54 0.0 0 0 164.08 239.96
  L 176.59 231.33
  A 0.73 0.71 36.4 0 1 177.22 231.24
  C 178.70 231.73 180.34 232.10 181.80 231.30
  C 184.42 229.87 185.37 226.36 183.59 223.76
  C 181.80 221.15 178.18 220.78 175.90 222.71
  C 174.63 223.78 174.39 225.45 174.31 227.00
  A 0.73 0.71 74.7 0 1 174.00 227.56
  L 161.45 236.13
  A 0.54 0.54 0.0 0 0 161.30 236.85
  Q 161.54 237.26 162.30 238.36
  Z
  M 282.40 260.79
  A 0.42 0.42 0.0 0 0 283.06 261.14
  Q 298.83 250.47 308.30 233.66
  A 0.48 0.48 0.0 0 0 308.10 233.00
  L 301.44 229.51
  A 0.53 0.53 0.0 0 0 300.73 229.71
  Q 293.81 241.42 283.15 249.99
  A 2.00 2.00 0.0 0 0 282.40 251.55
  L 282.40 260.79
  Z
  M 180.47 256.64
  L 186.28 248.91
  A 1.76 1.76 0.0 0 1 187.96 248.22
  C 193.68 249.11 196.23 242.27 191.75 238.97
  C 187.10 235.56 184.05 240.47 183.93 244.71
  A 1.63 1.63 0.0 0 1 183.49 245.80
  L 176.62 253.29
  A 0.86 0.85 42.8 0 0 176.67 254.49
  L 179.14 256.76
  A 0.90 0.90 0.0 0 0 180.47 256.64
  Z
  M 193.10 264.86
  A 0.82 0.82 0.0 0 0 193.39 266.06
  L 203.25 271.23
  A 0.82 0.82 0.0 0 0 204.44 270.60
  L 205.27 263.15
  A 0.82 0.82 0.0 0 0 204.83 262.33
  L 198.22 258.86
  A 0.82 0.82 0.0 0 0 197.18 259.11
  L 193.10 264.86
  Z
  M 181.6503 305.7981
  A 5.91 5.39 -179.4 0 0 187.5036 311.2497
  A 5.91 5.39 -179.4 0 0 193.4697 305.9219
  A 5.91 5.39 -179.4 0 0 187.6164 300.4703
  A 5.91 5.39 -179.4 0 0 181.6503 305.7981
  Z
  M 242.41 329.03
  Q 249.78 329.02 250.72 329.05
  A 0.65 0.65 0.0 0 1 251.35 329.70
  L 251.35 345.13
  A 0.57 0.57 0.0 0 0 251.92 345.70
  L 260.92 345.70
  A 0.43 0.43 0.0 0 0 261.35 345.27
  L 261.35 305.32
  A 0.63 0.62 0.0 0 0 260.72 304.70
  L 251.97 304.70
  A 0.71 0.70 -0.0 0 0 251.26 305.40
  L 251.26 319.86
  A 0.64 0.64 0.0 0 1 250.68 320.49
  Q 249.29 320.62 242.40 320.63
  Q 235.51 320.64 234.12 320.52
  A 0.64 0.64 0.0 0 1 233.54 319.89
  L 233.49 305.43
  A 0.71 0.70 -0.2 0 0 232.78 304.73
  L 224.03 304.75
  A 0.63 0.62 -0.2 0 0 223.40 305.38
  L 223.52 345.33
  A 0.43 0.43 0.0 0 0 223.95 345.75
  L 232.95 345.73
  A 0.57 0.57 0.0 0 0 233.52 345.16
  L 233.48 329.73
  A 0.65 0.65 0.0 0 1 234.11 329.08
  Q 235.04 329.04 242.41 329.03
  Z
  M 285.21 305.27
  A 0.43 0.43 0.0 0 0 284.78 304.84
  L 267.37 304.84
  A 0.43 0.43 0.0 0 0 266.94 305.27
  L 266.94 312.65
  A 0.43 0.43 0.0 0 0 267.37 313.08
  L 274.60 313.08
  A 0.43 0.43 0.0 0 1 275.03 313.51
  L 275.03 345.24
  A 0.43 0.43 0.0 0 0 275.46 345.67
  L 284.78 345.67
  A 0.43 0.43 0.0 0 0 285.21 345.24
  L 285.21 305.27
  Z
  M 192.30 316.08
  A 0.69 0.69 0.0 0 0 191.61 315.39
  L 183.35 315.39
  A 0.69 0.69 0.0 0 0 182.66 316.08
  L 182.66 344.92
  A 0.69 0.69 0.0 0 0 183.35 345.61
  L 191.61 345.61
  A 0.69 0.69 0.0 0 0 192.30 344.92
  L 192.30 316.08
  Z
  M 216.1186 327.1309
  A 0.63 0.63 0.0 0 0 215.4864 326.5031
  L 200.0865 326.5569
  A 0.63 0.63 0.0 0 0 199.4587 327.1891
  L 199.4814 333.6691
  A 0.63 0.63 0.0 0 0 200.1136 334.2969
  L 215.5135 334.2431
  A 0.63 0.63 0.0 0 0 216.1413 333.6109
  L 216.1186 327.1309
  Z"
/>
<path fill="#1e93ce" d="
  M 267.41 137.12
  Q 261.39 137.17 255.38 137.90
  C 252.55 138.25 248.24 138.27 246.15 137.50
  Q 239.96 135.19 233.56 133.15
  L 233.57 90.41
  A 0.32 0.24 -63.4 0 0 233.55 90.30
  L 233.42 89.84
  A 0.44 0.44 0.0 0 0 232.69 89.65
  Q 221.84 100.56 210.88 110.38
  Q 209.66 111.47 209.69 113.55
  L 205.58 114.30
  Q 205.32 111.76 206.07 109.54
  A 1.88 1.87 -12.5 0 1 206.56 108.78
  L 233.65 82.72
  A 0.74 0.74 0.0 0 1 234.68 82.72
  Q 248.84 96.71 266.30 112.71
  C 267.69 113.98 267.52 115.00 267.51 116.74
  Q 267.47 127.04 267.41 137.12
  Z"
/>
<path fill="#1e93ce" d="
  M 266.84 106.70
  Q 279.15 111.93 289.30 120.25
  A 0.51 0.50 55.2 0 1 289.15 121.12
  Q 285.32 122.45 284.75 126.60
  A 0.65 0.64 -68.3 0 1 283.74 127.04
  L 272.63 119.15
  A 1.44 1.43 17.8 0 1 272.02 117.98
  L 272.02 113.43
  A 3.06 3.05 21.4 0 0 271.03 111.18
  L 266.59 107.09
  A 0.24 0.23 -12.4 0 1 266.84 106.70
  Z"
/>
<path fill="#1e93ce" d="
  M 184.70 127.89
  A 0.47 0.47 0.0 0 1 183.92 127.61
  Q 183.21 123.00 179.28 121.77
  A 0.43 0.43 0.0 0 1 179.12 121.04
  Q 188.65 112.43 201.28 106.94
  A 0.11 0.11 0.0 0 1 201.43 107.05
  L 200.93 116.81
  A 0.53 0.52 -12.5 0 1 200.64 117.26
  Q 191.55 121.79 184.70 127.89
  Z"
/>
<path fill="#206da9" d="
  M 209.69 113.55
  L 209.86 126.40
  A 0.42 0.41 -17.8 0 0 210.51 126.73
  L 221.64 119.06
  A 0.39 0.39 0.0 0 1 222.25 119.38
  L 222.25 170.11
  A 3.54 3.51 -20.4 0 1 221.01 172.79
  Q 217.78 175.52 215.67 179.01
  A 0.26 0.16 -69.7 0 1 215.51 179.14
  Q 215.48 179.14 215.45 179.14
  A 0.08 0.03 -87.1 0 1 215.43 179.07
  L 215.42 148.34
  A 0.18 0.18 0.0 0 0 215.15 148.18
  L 208.53 152.00
  A 0.24 0.24 0.0 0 0 208.41 152.21
  L 208.41 190.23
  A 1.45 1.44 -15.2 0 1 207.69 191.48
  L 190.50 201.40
  A 0.61 0.61 0.0 0 1 189.59 200.87
  L 189.59 157.93
  A 1.80 1.79 -18.7 0 1 190.30 156.50
  L 204.54 145.54
  A 2.30 2.28 -19.0 0 0 205.43 143.73
  L 205.58 114.30
  L 209.69 113.55
  Z
  M 209.41 135.75
  Q 209.40 138.55 209.41 141.35
  A 0.40 0.39 -15.2 0 0 210.00 141.69
  L 214.89 138.87
  A 1.33 1.33 0.0 0 0 215.56 137.79
  Q 215.59 137.28 215.59 135.53
  Q 215.61 132.73 215.60 129.92
  A 0.40 0.39 -15.2 0 0 215.00 129.59
  L 210.11 132.41
  A 1.33 1.33 0.0 0 0 209.45 133.49
  Q 209.42 134.00 209.41 135.75
  Z"
/>
<path fill="#1e93ce" d="
  M 274.08 149.81
  A 1.09 1.08 -47.4 0 1 272.54 149.88
  L 271.89 149.28
  A 1.80 1.80 0.0 0 1 271.78 146.73
  L 286.25 130.98
  A 1.43 1.38 -23.6 0 0 286.61 130.10
  C 286.73 127.14 286.79 124.66 289.67 123.28
  C 296.49 120.00 301.57 133.14 290.92 132.87
  A 2.75 2.70 21.5 0 0 288.84 133.75
  L 274.08 149.81
  Z
  M 294.18 127.98
  A 2.42 2.42 0.0 0 0 291.76 125.56
  A 2.42 2.42 0.0 0 0 289.34 127.98
  A 2.42 2.42 0.0 0 0 291.76 130.40
  A 2.42 2.42 0.0 0 0 294.18 127.98
  Z"
/>
<path fill="#206da9" d="
  M 194.62 147.69
  Q 194.09 148.19 193.50 148.45
  A 0.66 0.66 0.0 0 1 192.76 148.30
  L 178.78 133.78
  A 0.95 0.94 -20.5 0 0 178.11 133.48
  L 175.27 133.42
  A 1.30 1.13 52.0 0 1 174.81 133.33
  C 171.16 131.90 169.78 127.55 172.87 124.64
  C 175.95 121.73 180.21 123.36 181.43 127.09
  A 1.30 1.13 41.3 0 1 181.49 127.55
  L 181.39 130.39
  A 0.95 0.94 -66.2 0 0 181.65 131.08
  L 195.33 145.87
  A 0.66 0.66 0.0 0 1 195.44 146.62
  Q 195.14 147.20 194.62 147.69
  Z
  M 178.94 128.38
  A 2.57 2.57 0.0 0 0 176.37 125.81
  A 2.57 2.57 0.0 0 0 173.80 128.38
  A 2.57 2.57 0.0 0 0 176.37 130.95
  A 2.57 2.57 0.0 0 0 178.94 128.38
  Z"
/>
<circle fill="#ffffff" cx="291.76" cy="127.98" r="2.42"/>
<circle fill="#ffffff" cx="176.37" cy="128.38" r="2.57"/>
<path fill="#ffffff" d="
  M 209.41 135.75
  Q 209.42 134.00 209.45 133.49
  A 1.33 1.33 0.0 0 1 210.11 132.41
  L 215.00 129.59
  A 0.40 0.39 -15.2 0 1 215.60 129.92
  Q 215.61 132.73 215.59 135.53
  Q 215.59 137.28 215.56 137.79
  A 1.33 1.33 0.0 0 1 214.89 138.87
  L 210.00 141.69
  A 0.40 0.39 -15.2 0 1 209.41 141.35
  Q 209.40 138.55 209.41 135.75
  Z"
/>
<rect fill="#1e93ce" x="-4.25" y="-1.73" transform="translate(296.86,134.93) rotate(-35.5)" width="8.50" height="3.46" rx="0.27"/>
<path fill="#1e93ce" d="
  M 167.56 134.85
  A 0.71 0.71 0.0 0 1 167.40 133.85
  L 168.39 132.46
  A 0.76 0.28 -54.4 0 1 169.06 132.01
  L 175.65 136.72
  A 0.76 0.28 -54.4 0 1 175.43 137.51
  L 174.44 138.90
  A 0.71 0.71 0.0 0 1 173.45 139.06
  L 167.56 134.85
  Z"
/>
<path fill="#206da9" d="
  M 267.41 137.12
  L 267.42 151.49
  A 0.97 0.95 18.6 0 0 267.81 152.26
  L 276.80 159.01
  A 2.20 2.19 18.6 0 1 277.67 160.76
  L 277.69 177.02
  L 265.67 183.52
  A 2.61 2.60 -11.1 0 0 264.31 185.53
  C 263.92 188.98 263.83 192.62 262.90 195.98
  Q 256.94 217.50 233.68 219.58
  Q 233.57 219.29 233.63 218.48
  Q 242.23 215.94 244.41 215.00
  Q 260.38 208.14 260.87 189.89
  C 261.31 173.59 248.81 162.95 233.57 161.29
  L 233.56 133.15
  Q 239.96 135.19 246.15 137.50
  C 248.24 138.27 252.55 138.25 255.38 137.90
  Q 261.39 137.17 267.41 137.12
  Z"
/>
<path fill="#206da9" d="
  M 288.62 151.91
  L 286.20 162.12
  A 0.77 0.77 0.0 0 1 285.72 162.66
  L 283.18 163.61
  A 0.77 0.77 0.0 0 1 282.16 162.71
  L 285.17 150.01
  A 0.77 0.77 0.0 0 1 285.48 149.55
  L 303.14 137.38
  A 0.77 0.77 0.0 0 1 304.21 137.57
  L 305.34 139.21
  A 0.77 0.77 0.0 0 1 305.14 140.28
  L 288.93 151.45
  A 0.77 0.77 0.0 0 0 288.62 151.91
  Z"
/>
<path fill="#206da9" d="
  M 183.93 163.49
  C 180.10 163.19 181.92 154.13 178.64 151.66
  Q 177.75 150.99 162.91 140.77
  A 0.54 0.54 0.0 0 1 162.78 140.01
  L 164.27 137.90
  A 0.59 0.57 35.2 0 1 165.08 137.77
  L 181.76 149.61
  A 3.10 3.10 0.0 0 1 182.83 150.96
  Q 185.00 156.34 184.62 162.89
  A 0.64 0.64 0.0 0 1 183.93 163.49
  Z"
/>
<path fill="#215b95" d="
  M 310.85 191.93
  L 294.81 191.93
  A 1.14 1.12 69.6 0 1 293.95 191.53
  L 289.70 186.52
  A 0.83 0.80 -19.0 0 0 289.07 186.23
  L 283.33 186.23
  A 0.76 0.76 0.0 0 1 282.57 185.47
  L 282.57 182.87
  A 0.65 0.64 -90.0 0 1 283.21 182.22
  L 290.03 182.22
  A 1.34 1.32 69.5 0 1 291.04 182.69
  L 294.83 187.15
  A 3.25 3.24 -20.0 0 0 297.31 188.30
  L 310.88 188.30
  A 0.46 0.46 0.0 0 0 311.34 187.83
  Q 311.19 166.69 300.96 149.14
  A 0.90 0.89 57.6 0 1 301.22 147.95
  L 307.17 143.85
  A 0.70 0.70 0.0 0 1 308.18 144.10
  C 321.44 168.38 324.11 196.01 313.86 221.85
  A 0.79 0.79 0.0 0 1 312.76 222.26
  L 306.25 218.84
  A 0.89 0.88 -65.4 0 1 305.84 217.72
  Q 310.79 205.58 311.37 192.47
  A 0.52 0.51 1.6 0 0 310.85 191.93
  Z"
/>
<path fill="#215b95" d="
  M 157.13 188.57
  L 171.00 188.57
  A 1.43 1.41 21.3 0 0 172.04 188.12
  L 176.87 182.86
  A 1.36 1.34 20.9 0 1 177.87 182.42
  L 184.21 182.42
  A 0.43 0.43 0.0 0 1 184.64 182.85
  L 184.64 186.01
  A 0.31 0.30 -90.0 0 1 184.34 186.32
  L 179.17 186.32
  A 0.92 0.91 21.2 0 0 178.50 186.61
  L 174.35 191.13
  A 3.34 3.31 -68.5 0 1 171.91 192.20
  L 157.11 192.20
  A 0.56 0.56 0.0 0 0 156.55 192.79
  Q 157.10 205.27 161.59 217.00
  A 0.96 0.96 0.0 0 1 161.17 218.18
  L 154.72 221.91
  A 0.73 0.71 64.8 0 1 153.69 221.53
  Q 139.07 181.48 160.19 143.96
  A 0.22 0.22 0.0 0 1 160.52 143.89
  L 167.20 148.90
  A 0.33 0.33 0.0 0 1 167.28 149.33
  Q 156.56 167.66 156.50 187.94
  A 0.63 0.62 0.4 0 0 157.13 188.57
  Z"
/>
<path fill="#6d93be" d="
  M 233.63 218.48
  Q 233.26 215.44 233.94 212.46
  A 0.74 0.74 0.0 0 1 234.57 211.90
  Q 242.72 211.07 248.46 206.16
  C 255.30 200.29 257.00 188.95 253.28 180.69
  Q 249.58 172.45 239.75 169.21
  Q 238.31 168.74 234.21 168.26
  A 0.60 0.59 -87.2 0 1 233.69 167.68
  L 233.57 161.29
  C 248.81 162.95 261.31 173.59 260.87 189.89
  Q 260.38 208.14 244.41 215.00
  Q 242.23 215.94 233.63 218.48
  Z"
/>
<path fill="#206da9" d="
  M 282.74 174.57
  L 282.44 172.31
  A 0.95 0.94 -11.6 0 1 283.13 171.26
  L 296.15 167.84
  A 0.94 0.93 -84.6 0 0 296.77 167.32
  C 298.14 164.47 299.87 162.42 303.29 163.20
  C 311.02 164.94 306.33 178.64 297.67 171.59
  A 0.66 0.64 57.1 0 0 297.08 171.45
  L 283.45 175.04
  A 0.57 0.57 0.0 0 1 282.74 174.57
  Z
  M 304.58 168.31
  A 2.58 2.58 0.0 0 0 302.00 165.73
  A 2.58 2.58 0.0 0 0 299.42 168.31
  A 2.58 2.58 0.0 0 0 302.00 170.89
  A 2.58 2.58 0.0 0 0 304.58 168.31
  Z"
/>
<path fill="#206da9" d="
  M 184.57 172.01
  L 184.57 174.70
  A 0.37 0.36 -83.2 0 1 184.12 175.06
  L 171.20 172.00
  A 1.24 1.24 0.0 0 0 170.11 172.25
  C 167.19 174.68 163.25 174.54 161.44 171.09
  C 160.27 168.85 161.36 164.50 164.22 163.71
  Q 169.87 162.14 171.38 167.87
  A 0.90 0.89 88.8 0 0 172.04 168.51
  L 184.06 171.36
  A 0.67 0.66 -83.5 0 1 184.57 172.01
  Z
  M 168.67 168.58
  A 2.59 2.59 0.0 0 0 166.08 165.99
  A 2.59 2.59 0.0 0 0 163.49 168.58
  A 2.59 2.59 0.0 0 0 166.08 171.17
  A 2.59 2.59 0.0 0 0 168.67 168.58
  Z"
/>
<circle fill="#ffffff" cx="302.00" cy="168.31" r="2.58"/>
<circle fill="#ffffff" cx="166.08" cy="168.58" r="2.59"/>
<path fill="#206da9" d="
  M 226.39 224.06
  L 221.05 225.11
  Q 223.03 216.64 228.28 208.04
  A 0.74 0.74 0.0 0 0 227.84 206.94
  Q 226.46 206.57 225.84 207.77
  Q 224.51 206.55 222.61 205.99
  Q 223.32 205.48 223.39 205.06
  A 0.87 0.87 0.0 0 0 221.89 204.31
  L 204.94 222.76
  A 2.99 2.79 -15.2 0 0 204.39 223.65
  C 202.62 228.35 205.33 230.91 208.22 235.54
  A 1.60 1.58 -43.7 0 1 208.17 237.30
  L 189.76 263.24
  A 1.01 1.01 0.0 0 1 188.36 263.48
  L 185.40 261.37
  A 0.85 0.84 36.3 0 1 185.21 260.17
  L 202.37 237.33
  A 1.42 1.41 -43.8 0 0 202.41 235.67
  L 199.10 230.88
  A 0.75 0.72 -62.3 0 1 198.97 230.43
  L 199.23 222.34
  A 2.12 2.11 -21.6 0 1 199.85 220.92
  L 219.40 201.54
  A 0.82 0.82 0.0 0 0 218.76 200.14
  Q 218.38 200.16 217.72 200.70
  L 215.99 197.71
  Q 217.07 196.97 216.95 196.15
  A 0.84 0.84 0.0 0 0 215.67 195.56
  Q 211.20 198.44 206.74 201.19
  L 204.16 197.89
  L 215.18 191.59
  A 1.24 1.23 81.7 0 0 215.78 190.78
  C 216.04 189.55 215.86 187.99 216.18 186.73
  C 218.54 177.42 226.15 170.20 236.35 171.98
  Q 248.43 174.10 251.84 186.04
  Q 253.47 191.76 250.83 197.29
  Q 245.46 208.55 232.95 208.32
  A 0.77 0.77 0.0 0 0 232.22 208.80
  Q 229.80 214.70 226.56 221.83
  Q 226.11 222.81 226.39 224.06
  Z
  M 234.17 193.67
  Q 235.29 193.68 235.77 193.85
  A 1.63 1.61 81.9 0 1 236.56 194.45
  Q 237.62 196.00 237.37 198.77
  A 0.66 0.66 0.0 0 0 238.03 199.49
  L 243.59 199.49
  A 0.67 0.67 0.0 0 0 244.26 198.82
  L 244.26 181.50
  A 0.72 0.71 90.0 0 0 243.55 180.78
  L 241.89 180.78
  A 0.78 0.78 0.0 0 0 241.11 181.56
  L 241.11 190.00
  A 0.79 0.78 -90.0 0 1 240.33 190.79
  L 239.79 190.79
  A 0.99 0.99 0.0 0 1 238.80 189.80
  L 238.80 181.63
  A 0.83 0.82 -0.0 0 0 237.97 180.81
  L 236.21 180.81
  A 0.81 0.81 0.0 0 0 235.40 181.62
  L 235.40 189.46
  A 0.74 0.74 0.0 0 1 234.80 190.18
  Q 234.59 190.23 234.18 190.23
  Q 233.77 190.22 233.56 190.18
  A 0.74 0.74 0.0 0 1 232.96 189.45
  L 233.01 181.61
  A 0.81 0.81 0.0 0 0 232.20 180.80
  L 230.44 180.79
  A 0.83 0.82 0.3 0 0 229.61 181.60
  L 229.56 189.77
  A 0.99 0.99 0.0 0 1 228.57 190.76
  L 228.03 190.76
  A 0.79 0.78 -89.7 0 1 227.25 189.96
  L 227.30 181.52
  A 0.78 0.78 0.0 0 0 226.52 180.74
  L 224.86 180.73
  A 0.72 0.71 -89.7 0 0 224.15 181.44
  L 224.05 198.76
  A 0.67 0.67 0.0 0 0 224.72 199.44
  L 230.28 199.47
  A 0.66 0.66 0.0 0 0 230.94 198.75
  Q 230.71 195.98 231.78 194.44
  A 1.63 1.61 -81.5 0 1 232.57 193.84
  Q 233.05 193.67 234.17 193.67
  Z"
/>
<path fill="#214a8a" d="
  M 277.69 177.02
  L 277.64 250.79
  L 277.39 233.63
  A 0.41 0.39 -6.9 0 0 276.89 233.25
  Q 255.43 238.56 233.61 233.89
  L 233.68 219.58
  Q 256.94 217.50 262.90 195.98
  C 263.83 192.62 263.92 188.98 264.31 185.53
  A 2.61 2.60 -11.1 0 1 265.67 183.52
  L 277.69 177.02
  Z"
/>
<path fill="#ffffff" d="
  M 234.18 190.23
  Q 234.59 190.23 234.80 190.18
  A 0.74 0.74 0.0 0 0 235.40 189.46
  L 235.40 181.62
  A 0.81 0.81 0.0 0 1 236.21 180.81
  L 237.97 180.81
  A 0.83 0.82 0.0 0 1 238.80 181.63
  L 238.80 189.80
  A 0.99 0.99 0.0 0 0 239.79 190.79
  L 240.33 190.79
  A 0.79 0.78 90.0 0 0 241.11 190.00
  L 241.11 181.56
  A 0.78 0.78 0.0 0 1 241.89 180.78
  L 243.55 180.78
  A 0.72 0.71 90.0 0 1 244.26 181.50
  L 244.26 198.82
  A 0.67 0.67 0.0 0 1 243.59 199.49
  L 238.03 199.49
  A 0.66 0.66 0.0 0 1 237.37 198.77
  Q 237.62 196.00 236.56 194.45
  A 1.63 1.61 81.9 0 0 235.77 193.85
  Q 235.29 193.68 234.17 193.67
  Q 233.05 193.67 232.57 193.84
  A 1.63 1.61 -81.5 0 0 231.78 194.44
  Q 230.71 195.98 230.94 198.75
  A 0.66 0.66 0.0 0 1 230.28 199.47
  L 224.72 199.44
  A 0.67 0.67 0.0 0 1 224.05 198.76
  L 224.15 181.44
  A 0.72 0.71 -89.7 0 1 224.86 180.73
  L 226.52 180.74
  A 0.78 0.78 0.0 0 1 227.30 181.52
  L 227.25 189.96
  A 0.79 0.78 -89.7 0 0 228.03 190.76
  L 228.57 190.76
  A 0.99 0.99 0.0 0 0 229.56 189.77
  L 229.61 181.60
  A 0.83 0.82 0.3 0 1 230.44 180.79
  L 232.20 180.80
  A 0.81 0.81 0.0 0 1 233.01 181.61
  L 232.96 189.45
  A 0.74 0.74 0.0 0 0 233.56 190.18
  Q 233.77 190.22 234.18 190.23
  Z"
/>
<path fill="#214a8a" d="
  M 283.54 196.79
  L 297.40 200.08
  A 0.67 0.65 -58.5 0 0 297.99 199.93
  C 306.57 192.59 311.65 206.32 303.88 208.27
  C 300.44 209.14 298.64 207.11 297.19 204.27
  A 0.95 0.94 83.1 0 0 296.55 203.76
  L 283.31 200.62
  A 0.96 0.95 10.2 0 1 282.58 199.58
  L 282.83 197.29
  A 0.58 0.58 0.0 0 1 283.54 196.79
  Z
  M 305.11 203.23
  A 2.56 2.56 0.0 0 0 302.55 200.67
  A 2.56 2.56 0.0 0 0 299.99 203.23
  A 2.56 2.56 0.0 0 0 302.55 205.79
  A 2.56 2.56 0.0 0 0 305.11 203.23
  Z"
/>
<path fill="#214a8a" d="
  M 184.88 197.44
  L 185.14 199.69
  A 0.95 0.94 -10.5 0 1 184.43 200.72
  L 171.42 203.88
  A 0.94 0.93 -83.5 0 0 170.79 204.39
  C 169.38 207.19 167.63 209.20 164.24 208.36
  C 156.58 206.49 161.50 192.95 169.98 200.12
  A 0.66 0.64 58.2 0 0 170.56 200.27
  L 184.18 196.95
  A 0.57 0.57 0.0 0 1 184.88 197.44
  Z
  M 168.07 203.40
  A 2.59 2.59 0.0 0 0 165.48 200.81
  A 2.59 2.59 0.0 0 0 162.89 203.40
  A 2.59 2.59 0.0 0 0 165.48 205.99
  A 2.59 2.59 0.0 0 0 168.07 203.40
  Z"
/>
<path fill="#214a8a" d="
  M 215.99 197.71
  L 217.72 200.70
  L 195.49 219.51
  A 1.74 1.73 70.3 0 0 194.88 220.81
  L 194.79 228.17
  A 2.23 2.19 70.9 0 1 194.01 229.82
  L 171.55 248.88
  A 0.84 0.84 0.0 0 1 170.36 248.78
  L 168.18 246.21
  A 0.84 0.84 0.0 0 1 168.27 245.03
  L 189.74 226.82
  A 1.44 1.43 70.3 0 0 190.24 225.75
  L 190.30 218.07
  A 1.57 1.57 0.0 0 1 190.92 216.82
  L 215.99 197.71
  Z"
/>
<path fill="#214a8a" d="
  M 204.16 197.89
  L 206.74 201.19
  L 158.33 230.58
  A 0.81 0.81 0.0 0 1 157.15 230.17
  L 155.85 226.68
  A 0.90 0.90 0.0 0 1 156.25 225.59
  L 204.16 197.89
  Z"
/>
<circle fill="#ffffff" cx="302.55" cy="203.23" r="2.56"/>
<circle fill="#ffffff" cx="165.48" cy="203.40" r="2.59"/>
<path fill="#214a8a" d="
  M 288.17 207.71
  L 290.92 215.11
  A 0.67 0.67 0.0 0 0 291.24 215.47
  L 311.43 226.06
  A 0.67 0.67 0.0 0 1 311.71 226.96
  L 310.56 229.16
  A 0.67 0.67 0.0 0 1 309.66 229.44
  L 288.04 218.10
  A 0.67 0.67 0.0 0 1 287.72 217.74
  L 285.01 210.45
  A 0.67 0.67 0.0 0 0 284.69 210.09
  L 283.02 209.21
  A 0.67 0.67 0.0 0 1 282.66 208.62
  L 282.66 205.74
  A 0.67 0.67 0.0 0 1 283.64 205.14
  L 287.85 207.35
  A 0.67 0.67 0.0 0 1 288.17 207.71
  Z"
/>
<path fill="#272a73" d="
  M 225.84 207.77
  L 214.27 224.02
  A 1.20 1.17 -45.1 0 0 214.26 225.39
  L 217.78 230.50
  A 2.48 2.44 -58.2 0 1 218.18 232.27
  Q 217.04 239.21 216.37 247.88
  C 216.24 249.56 214.90 251.56 216.34 253.08
  C 219.46 256.38 218.35 259.33 215.09 261.80
  A 0.79 0.77 -15.7 0 0 214.79 262.32
  L 213.60 273.06
  A 0.66 0.66 0.0 0 1 212.86 273.65
  L 209.63 273.30
  A 1.04 1.04 0.0 0 1 208.72 272.16
  L 209.86 261.80
  A 0.93 0.92 28.7 0 0 209.65 261.09
  L 208.11 259.17
  A 0.85 0.82 17.3 0 1 207.95 258.88
  C 206.79 255.23 208.85 253.51 211.43 251.61
  A 1.57 1.53 -15.6 0 0 212.06 250.52
  L 213.96 233.30
  A 2.32 2.29 28.4 0 0 213.43 231.56
  L 207.97 225.12
  A 0.63 0.63 0.0 0 1 207.95 224.32
  L 222.61 205.99
  Q 224.51 206.55 225.84 207.77
  Z
  M 215.42 256.90
  A 2.38 2.38 0.0 0 0 213.04 254.52
  A 2.38 2.38 0.0 0 0 210.66 256.90
  A 2.38 2.38 0.0 0 0 213.04 259.28
  A 2.38 2.38 0.0 0 0 215.42 256.90
  Z"
/>
<path fill="#272a73" d="
  M 183.59 223.76
  C 185.37 226.36 184.42 229.87 181.80 231.30
  C 180.34 232.10 178.70 231.73 177.22 231.24
  A 0.73 0.71 36.4 0 0 176.59 231.33
  L 164.08 239.96
  A 0.54 0.54 0.0 0 1 163.35 239.84
  Q 163.06 239.46 162.30 238.36
  Q 161.54 237.26 161.30 236.85
  A 0.54 0.54 0.0 0 1 161.45 236.13
  L 174.00 227.56
  A 0.73 0.71 74.7 0 0 174.31 227.00
  C 174.39 225.45 174.63 223.78 175.90 222.71
  C 178.18 220.78 181.80 221.15 183.59 223.76
  Z
  M 181.87 226.60
  A 2.48 2.48 0.0 0 0 179.39 224.12
  A 2.48 2.48 0.0 0 0 176.91 226.60
  A 2.48 2.48 0.0 0 0 179.39 229.08
  A 2.48 2.48 0.0 0 0 181.87 226.60
  Z"
/>
<circle fill="#ffffff" cx="179.39" cy="226.60" r="2.48"/>
<path fill="#272a73" d="
  M 226.39 224.06
  L 226.24 276.06
  A 0.34 0.34 0.0 0 1 225.79 276.38
  Q 223.64 275.64 221.44 275.69
  A 0.47 0.46 -0.6 0 1 220.96 275.23
  L 221.05 225.11
  L 226.39 224.06
  Z"
/>
<path fill="#272a73" d="
  M 282.40 260.79
  L 282.40 251.55
  A 2.00 2.00 0.0 0 1 283.15 249.99
  Q 293.81 241.42 300.73 229.71
  A 0.53 0.53 0.0 0 1 301.44 229.51
  L 308.10 233.00
  A 0.48 0.48 0.0 0 1 308.30 233.66
  Q 298.83 250.47 283.06 261.14
  A 0.42 0.42 0.0 0 1 282.40 260.79
  Z"
/>
<path fill="#272a73" d="
  M 277.64 250.79
  L 277.65 264.09
  A 1.05 1.04 75.3 0 1 277.12 265.00
  Q 257.39 276.35 234.38 276.64
  A 0.72 0.72 0.0 0 1 233.65 275.92
  L 233.61 233.89
  Q 255.43 238.56 276.89 233.25
  A 0.41 0.39 -6.9 0 1 277.39 233.63
  L 277.64 250.79
  Z"
/>
<path fill="#272a73" d="
  M 180.47 256.64
  A 0.90 0.90 0.0 0 1 179.14 256.76
  L 176.67 254.49
  A 0.86 0.85 42.8 0 1 176.62 253.29
  L 183.49 245.80
  A 1.63 1.63 0.0 0 0 183.93 244.71
  C 184.05 240.47 187.10 235.56 191.75 238.97
  C 196.23 242.27 193.68 249.11 187.96 248.22
  A 1.76 1.76 0.0 0 0 186.28 248.91
  L 180.47 256.64
  Z
  M 191.59 243.33
  A 2.45 2.45 0.0 0 0 189.14 240.88
  A 2.45 2.45 0.0 0 0 186.69 243.33
  A 2.45 2.45 0.0 0 0 189.14 245.78
  A 2.45 2.45 0.0 0 0 191.59 243.33
  Z"
/>
<circle fill="#ffffff" cx="189.14" cy="243.33" r="2.45"/>
<circle fill="#ffffff" cx="213.04" cy="256.90" r="2.38"/>
<path fill="#272a73" d="
  M 193.10 264.86
  L 197.18 259.11
  A 0.82 0.82 0.0 0 1 198.22 258.86
  L 204.83 262.33
  A 0.82 0.82 0.0 0 1 205.27 263.15
  L 204.44 270.60
  A 0.82 0.82 0.0 0 1 203.25 271.23
  L 193.39 266.06
  A 0.82 0.82 0.0 0 1 193.10 264.86
  Z"
/>
<ellipse fill="#272a73" cx="0.00" cy="0.00" transform="translate(187.56,305.86) rotate(-179.4)" rx="5.91" ry="5.39"/>
<path fill="#272a73" d="
  M 242.40 320.63
  Q 249.29 320.62 250.68 320.49
  A 0.64 0.64 0.0 0 0 251.26 319.86
  L 251.26 305.40
  A 0.71 0.70 0.0 0 1 251.97 304.70
  L 260.72 304.70
  A 0.63 0.62 -0.0 0 1 261.35 305.32
  L 261.35 345.27
  A 0.43 0.43 0.0 0 1 260.92 345.70
  L 251.92 345.70
  A 0.57 0.57 0.0 0 1 251.35 345.13
  L 251.35 329.70
  A 0.65 0.65 0.0 0 0 250.72 329.05
  Q 249.78 329.02 242.41 329.03
  Q 235.04 329.04 234.11 329.08
  A 0.65 0.65 0.0 0 0 233.48 329.73
  L 233.52 345.16
  A 0.57 0.57 0.0 0 1 232.95 345.73
  L 223.95 345.75
  A 0.43 0.43 0.0 0 1 223.52 345.33
  L 223.40 305.38
  A 0.63 0.62 -0.2 0 1 224.03 304.75
  L 232.78 304.73
  A 0.71 0.70 -0.2 0 1 233.49 305.43
  L 233.54 319.89
  A 0.64 0.64 0.0 0 0 234.12 320.52
  Q 235.51 320.64 242.40 320.63
  Z"
/>
<path fill="#272a73" d="
  M 285.21 305.27
  L 285.21 345.24
  A 0.43 0.43 0.0 0 1 284.78 345.67
  L 275.46 345.67
  A 0.43 0.43 0.0 0 1 275.03 345.24
  L 275.03 313.51
  A 0.43 0.43 0.0 0 0 274.60 313.08
  L 267.37 313.08
  A 0.43 0.43 0.0 0 1 266.94 312.65
  L 266.94 305.27
  A 0.43 0.43 0.0 0 1 267.37 304.84
  L 284.78 304.84
  A 0.43 0.43 0.0 0 1 285.21 305.27
  Z"
/>
<rect fill="#272a73" x="182.66" y="315.39" width="9.64" height="30.22" rx="0.69"/>
<rect fill="#272a73" x="-8.33" y="-3.87" transform="translate(207.80,330.40) rotate(-0.2)" width="16.66" height="7.74" rx="0.63"/>
</svg>
